#define ghost_width 24
#define ghost_height 24
static unsigned char ghost_bits[] = {
   0xe0, 0xff, 0x07, 0xf8, 0xff, 0x1f, 0xfc, 0xff, 0x3f, 0xfc, 0xff, 0x3f,
   0x3e, 0xff, 0x7c, 0x1e, 0x7e, 0x78, 0x0e, 0x3c, 0x70, 0x0f, 0x3c, 0xf0,
   0x0f, 0x3c, 0xf0, 0x8f, 0x3d, 0xf6, 0x8f, 0x3d, 0xf6, 0x1f, 0x7e, 0xf8,
   0x3f, 0xff, 0xfc, 0xff, 0xff, 0xff, 0xff, 0xff, 0xff, 0xff, 0xff, 0xff,
   0xff, 0xff, 0xff, 0xff, 0xff, 0xff, 0xff, 0xff, 0xff, 0xff, 0xff, 0xff,
   0xcf, 0xcf, 0xe7, 0x87, 0x87, 0xc3, 0x83, 0x83, 0xc1, 0x83, 0x83, 0xc1};
